<svg width="176" height="64" viewBox="0 0 176 64" fill="none" xmlns="http://www.w3.org/2000/svg">
<path d="M32.624 5.688C32.3253 8.71733 32.176 11.448 32.176 13.88C32.176 16.0133 32.24 17.7627 32.368 19.128H30.896C30.5547 15.8427 30.128 13.4107 29.616 11.832C29.104 10.2107 28.208 9.03733 26.928 8.312C25.648 7.544 23.6853 7.16 21.04 7.16H17.008C15.472 7.16 14.3413 7.288 13.616 7.544C12.9333 7.75733 12.464 8.22667 12.208 8.952C11.952 9.67733 11.824 10.8507 11.824 12.472V28.216H16.496C17.9893 28.216 19.1413 27.8747 19.952 27.192C20.7627 26.4667 21.296 25.6347 21.552 24.696C21.8507 23.7147 22.0853 22.4987 22.256 21.048L22.448 19.768H23.92C23.792 21.56 23.728 23.5653 23.728 25.784V28.856C23.728 31.032 23.856 34.0613 24.112 37.944H22.64C22.5973 37.6453 22.4693 36.6213 22.256 34.872C22.0427 33.08 21.4453 31.736 20.464 30.84C19.5253 29.944 18.2027 29.496 16.496 29.496H11.824V44.216C11.824 45.8373 11.9947 47.0107 12.336 47.736C12.6773 48.4613 13.2747 48.952 14.128 49.208C14.9813 49.464 16.368 49.6347 18.288 49.72V51C16.0693 50.872 12.9333 50.808 8.88 50.808C5.21067 50.808 2.48 50.872 0.688 51V49.72C2.224 49.6347 3.33333 49.464 4.016 49.208C4.74133 48.952 5.232 48.4613 5.488 47.736C5.744 47.0107 5.872 45.8373 5.872 44.216V12.472C5.872 10.8507 5.744 9.67733 5.488 8.952C5.232 8.22667 4.74133 7.736 4.016 7.48C3.33333 7.224 2.224 7.05333 0.688 6.968V5.688C4.86933 5.816 11.056 5.88 19.248 5.88C25.52 5.88 29.9787 5.816 32.624 5.688ZM46.032 45.048C46.032 46.7973 46.3947 48.0133 47.12 48.696C47.8453 49.336 49.104 49.656 50.896 49.656V51C46.9707 50.8293 44.3893 50.744 43.152 50.744C41.9147 50.744 39.3333 50.8293 35.408 51V49.656C37.2 49.656 38.4587 49.336 39.184 48.696C39.9093 48.0133 40.272 46.7973 40.272 45.048V8.504C40.272 6.54133 39.9093 5.112 39.184 4.216C38.4587 3.32 37.2 2.872 35.408 2.872V1.528C36.7307 1.656 38.0533 1.72 39.376 1.72C42.064 1.72 44.2827 1.42133 46.032 0.823997V45.048ZM69.2235 17.144C73.5755 17.144 77.0742 18.5947 79.7195 21.496C82.4075 24.3547 83.7515 28.7067 83.7515 34.552C83.7515 40.3973 82.4075 44.7493 79.7195 47.608C77.0742 50.4667 73.5755 51.896 69.2235 51.896C64.8715 51.896 61.3515 50.4667 58.6635 47.608C56.0182 44.7493 54.6955 40.3973 54.6955 34.552C54.6955 28.7067 56.0182 24.3547 58.6635 21.496C61.3515 18.5947 64.8715 17.144 69.2235 17.144ZM69.2235 18.424C66.6635 18.424 64.6368 19.7467 63.1435 22.392C61.6502 24.9947 60.9035 29.048 60.9035 34.552C60.9035 40.056 61.6502 44.1093 63.1435 46.712C64.6368 49.3147 66.6635 50.616 69.2235 50.616C71.7835 50.616 73.8102 49.3147 75.3035 46.712C76.7968 44.1093 77.5435 40.056 77.5435 34.552C77.5435 29.048 76.7968 24.9947 75.3035 22.392C73.8102 19.7467 71.7835 18.424 69.2235 18.424ZM103.134 4.984C105.011 4.984 106.483 5.19733 107.55 5.624C108.659 6.008 109.79 6.584 110.942 7.352C111.881 7.94933 112.606 8.248 113.118 8.248C113.502 8.248 113.801 8.03466 114.014 7.608C114.227 7.13867 114.398 6.41333 114.526 5.432H115.998C115.785 7.90666 115.678 12.2587 115.678 18.488H114.206C113.95 15.032 112.947 12.1307 111.198 9.784C109.491 7.39466 106.995 6.2 103.71 6.2C101.406 6.2 99.5287 6.904 98.078 8.312C96.6273 9.67733 95.902 11.448 95.902 13.624C95.902 15.2453 96.2647 16.6533 96.99 17.848C97.758 19.0427 98.718 20.0667 99.87 20.92C101.022 21.7733 102.665 22.8613 104.798 24.184L106.654 25.336C109.342 27 111.454 28.472 112.99 29.752C114.569 30.9893 115.827 32.4187 116.766 34.04C117.705 35.6613 118.174 37.56 118.174 39.736C118.174 43.6187 116.894 46.6267 114.334 48.76C111.774 50.8507 108.531 51.896 104.606 51.896C102.558 51.896 100.873 51.6827 99.55 51.256C98.27 50.8293 97.0327 50.2533 95.838 49.528C94.8993 48.9307 94.174 48.632 93.662 48.632C93.278 48.632 92.9793 48.8667 92.766 49.336C92.5527 49.7627 92.382 50.4667 92.254 51.448H90.782C90.9527 49.1013 91.038 43.9813 91.038 36.088H92.51C92.8087 40.3973 93.8753 43.896 95.71 46.584C97.5447 49.272 100.361 50.616 104.158 50.616C106.462 50.616 108.425 49.912 110.046 48.504C111.667 47.0533 112.478 44.92 112.478 42.104C112.478 39.7147 111.667 37.688 110.046 36.024C108.467 34.36 105.95 32.4827 102.494 30.392C99.9767 28.856 97.9287 27.4907 96.35 26.296C94.814 25.1013 93.5553 23.672 92.574 22.008C91.5927 20.3013 91.102 18.3173 91.102 16.056C91.102 12.472 92.254 9.74133 94.558 7.864C96.862 5.944 99.7207 4.984 103.134 4.984ZM133.473 18.104H142.945V19.384H133.473V44.152C133.473 46.072 133.814 47.4587 134.497 48.312C135.222 49.1653 136.246 49.592 137.569 49.592C138.891 49.592 140.022 49.0587 140.961 47.992C141.899 46.9253 142.689 45.176 143.329 42.744L144.609 43.064C143.542 48.952 140.769 51.896 136.289 51.896C134.838 51.896 133.643 51.7253 132.705 51.384C131.766 51.0427 130.934 50.5093 130.209 49.784C129.27 48.8453 128.609 47.6933 128.225 46.328C127.883 44.9627 127.713 43.128 127.713 40.824V19.384H121.569V18.104H127.713V8.312C130.102 8.22666 132.022 7.928 133.473 7.416V18.104ZM170.69 18.232C172.567 18.232 174.188 18.168 175.554 18.04V19.32C174.7 19.4053 173.932 19.7893 173.25 20.472C172.61 21.1547 171.991 22.264 171.394 23.8L160.898 51.32L158.722 56.888C157.911 58.9787 156.994 60.472 155.97 61.368C155.33 61.9653 154.562 62.392 153.666 62.648C152.77 62.904 151.874 63.032 150.978 63.032C149.698 63.032 148.652 62.6907 147.842 62.008C147.031 61.3253 146.626 60.3867 146.626 59.192C146.626 58.168 146.924 57.336 147.522 56.696C148.119 56.0987 148.951 55.8 150.018 55.8C150.956 55.8 151.724 56.056 152.322 56.568C152.962 57.1227 153.282 57.8693 153.282 58.808C153.282 60.088 152.706 61.048 151.554 61.688C151.639 61.7307 151.767 61.752 151.938 61.752C154.284 61.752 156.098 60.088 157.378 56.76L159.618 50.936L148.034 22.968C147.308 21.5173 146.583 20.5573 145.858 20.088C145.132 19.6187 144.407 19.384 143.681 19.384V18.04C145.516 18.296 147.607 18.424 149.954 18.424C152.087 18.424 154.86 18.296 158.274 18.04V19.384C156.738 19.384 155.607 19.512 154.882 19.768C154.199 20.024 153.858 20.6427 153.858 21.624C153.858 22.52 154.114 23.5653 154.626 24.76L162.306 43.832L169.41 25.336C169.879 24.056 170.114 23.0747 170.114 22.392C170.114 21.4107 169.73 20.6853 168.962 20.216C168.194 19.7467 166.978 19.448 165.314 19.32V18.04C167.575 18.168 169.367 18.232 170.69 18.232Z" fill="#2F2F2F"/>
</svg>
