<svg width="28" height="29" viewBox="0 0 28 29" fill="none" xmlns="http://www.w3.org/2000/svg">
<path d="M9.71985 28.0037C10.8562 28.0037 11.7773 27.0605 11.7773 25.897C11.7773 24.7335 10.8562 23.7903 9.71985 23.7903C8.58353 23.7903 7.66235 24.7335 7.66235 25.897C7.66235 27.0605 8.58353 28.0037 9.71985 28.0037Z" fill="#2F2F2F"/>
<path d="M22.2206 28.0037C23.3569 28.0037 24.2781 27.0605 24.2781 25.897C24.2781 24.7335 23.3569 23.7903 22.2206 23.7903C21.0843 23.7903 20.1631 24.7335 20.1631 25.897C20.1631 27.0605 21.0843 28.0037 22.2206 28.0037Z" fill="#2F2F2F"/>
<path d="M27.7804 3.06993C27.6953 2.96253 27.588 2.87576 27.4663 2.81586C27.3445 2.75596 27.2113 2.72441 27.0762 2.7235H8.03738L8.63178 4.59611H25.8783L23.4367 15.8318H9.71997L5.54093 2.28344C5.49573 2.13968 5.41723 2.00924 5.31214 1.90327C5.20705 1.79729 5.07848 1.71892 4.9374 1.67484L1.18815 0.495095C1.07287 0.458822 0.951734 0.446155 0.831668 0.457815C0.711603 0.469475 0.594956 0.505235 0.488389 0.563053C0.273165 0.679821 0.11206 0.879347 0.0405145 1.11774C-0.0310311 1.35613 -0.00715641 1.61386 0.106886 1.83422C0.220929 2.05459 0.415798 2.21954 0.648624 2.2928L3.9315 3.32274L8.12883 16.8992L6.62913 18.1538L6.51025 18.2755C6.13929 18.7132 5.92903 19.2697 5.91567 19.8491C5.90232 20.4284 6.08671 20.9945 6.4371 21.4496C6.68634 21.7599 7.00306 22.0063 7.36192 22.1688C7.72077 22.3314 8.11181 22.4058 8.50375 22.3859H23.7659C24.0085 22.3859 24.2411 22.2873 24.4125 22.1117C24.584 21.9361 24.6804 21.6979 24.6804 21.4496C24.6804 21.2013 24.584 20.9631 24.4125 20.7875C24.2411 20.6119 24.0085 20.5133 23.7659 20.5133H8.35744C8.25214 20.5096 8.14954 20.4782 8.05957 20.4221C7.96959 20.3659 7.89527 20.287 7.84379 20.1928C7.79231 20.0987 7.76541 19.9926 7.76568 19.8847C7.76595 19.7768 7.79339 19.6708 7.84535 19.577L10.0492 17.7044H24.1683C24.3797 17.7097 24.5863 17.6398 24.753 17.5066C24.9198 17.3735 25.0363 17.1853 25.0827 16.9741L27.9815 3.86579C28.0094 3.72621 28.0057 3.58196 27.9708 3.44405C27.936 3.30613 27.8708 3.17818 27.7804 3.06993Z" fill="#2F2F2F"/>
</svg>
