<svg xmlns="http://www.w3.org/2000/svg" xmlns:xlink="http://www.w3.org/1999/xlink" width="14pt" height="14pt" viewBox="0 0 14 14">
<path style="stroke:none;fill-rule:nonzero;fill:#2F2F2F;fill-opacity:1;" d="M 13.234375 0 L 0.765625 0 C 0.546875 0 0.34375 0.121094 0.242188 0.316406 C 0.140625 0.515625 0.160156 0.753906 0.289062 0.9375 L 4.855469 7.371094 C 4.859375 7.375 4.859375 7.375 4.863281 7.378906 C 5.027344 7.601562 5.117188 7.875 5.117188 8.152344 L 5.117188 13.398438 C 5.117188 13.554688 5.179688 13.703125 5.289062 13.8125 C 5.398438 13.921875 5.546875 13.984375 5.703125 13.984375 C 5.78125 13.984375 5.859375 13.96875 5.929688 13.941406 L 8.5 12.960938 C 8.726562 12.890625 8.882812 12.671875 8.882812 12.414062 L 8.882812 8.152344 C 8.882812 7.875 8.972656 7.601562 9.136719 7.378906 C 9.136719 7.375 9.140625 7.375 9.140625 7.371094 L 13.710938 0.9375 C 13.839844 0.753906 13.859375 0.515625 13.757812 0.316406 C 13.65625 0.121094 13.453125 0 13.234375 0 Z M 13.234375 0 "/>
</svg>
