<svg width="32" height="29" viewBox="0 0 32 29" fill="none" xmlns="http://www.w3.org/2000/svg">
<path d="M16 28.0037C15.779 28.0031 15.5645 27.9326 15.3899 27.8033C9.82901 23.6798 5.99839 20.1291 3.31796 16.6261C-0.102591 12.1494 -0.882716 8.01643 0.997586 4.34159C2.3378 1.71671 6.18842 -0.430927 10.6891 0.819473C12.835 1.41102 14.7073 2.67959 16 4.41795C17.2927 2.67959 19.165 1.41102 21.3109 0.819473C25.8016 -0.411837 29.6622 1.71671 31.0024 4.34159C32.8827 8.01643 32.1026 12.1494 28.682 16.6261C26.0016 20.1291 22.171 23.6798 16.6101 27.8033C16.4355 27.9326 16.221 28.0031 16 28.0037ZM8.12873 2.37531C7.05781 2.33554 5.99576 2.57485 5.05658 3.06757C4.11741 3.56028 3.33656 4.28779 2.79788 5.17201C1.24763 8.20733 1.94774 11.5863 4.93822 15.4902C8.1163 19.4023 11.8377 22.8832 16 25.837C20.1616 22.8861 23.883 19.4085 27.0618 15.4997C30.0623 11.5863 30.7524 8.20733 29.2021 5.18155C28.202 3.27255 25.2015 1.75489 21.8609 2.65212C20.7898 2.95422 19.7968 3.467 18.9459 4.15744C18.0949 4.84789 17.4049 5.70072 16.9201 6.66103C16.8448 6.8361 16.7166 6.98584 16.5519 7.09122C16.3871 7.19659 16.1933 7.25286 15.995 7.25286C15.7967 7.25286 15.6028 7.19659 15.4381 7.09122C15.2734 6.98584 15.1452 6.8361 15.0699 6.66103C14.5888 5.69831 13.8999 4.8435 13.0484 4.15262C12.1969 3.46174 11.2021 2.9504 10.1291 2.65212C9.47893 2.47191 8.80572 2.37875 8.12873 2.37531Z" fill="#2F2F2F"/>
</svg>
