<svg width="28" height="29" viewBox="0 0 28 29" fill="none" xmlns="http://www.w3.org/2000/svg">
<path d="M27.7546 26.524L19.2756 18.1029C20.9659 16.112 21.8111 13.8161 21.8111 11.2154C21.8111 9.26033 21.3249 7.45773 20.3525 5.80759C19.3801 4.15745 18.0532 2.85259 16.372 1.893C14.6907 0.933409 12.864 0.453613 10.8919 0.453613C8.91983 0.453613 7.0977 0.933409 5.42551 1.893C3.75333 2.85259 2.43103 4.15745 1.45862 5.80759C0.486206 7.45773 0 9.26033 0 11.2154C0 13.1704 0.486206 14.973 1.45862 16.6232C2.43103 18.2733 3.75333 19.5782 5.42551 20.5378C7.0977 21.4974 8.92438 21.9771 10.9056 21.9771C13.6138 21.9771 15.9948 21.0983 18.0487 19.3405L26.5005 27.7347C26.6822 27.9141 26.8913 28.0037 27.1276 28.0037C27.3638 28.0037 27.5683 27.9185 27.741 27.7481C27.9137 27.5777 28 27.3715 28 27.1293C28 26.8872 27.9182 26.6854 27.7546 26.524ZM10.9056 20.2822C9.23337 20.2822 7.69296 19.8741 6.28432 19.058C4.87569 18.2419 3.76241 17.1388 2.9445 15.7488C2.12658 14.3587 1.71762 12.8476 1.71762 11.2154C1.71762 9.58318 2.12658 8.07205 2.9445 6.68199C3.76241 5.29192 4.87569 4.18884 6.28432 3.37274C7.69296 2.55664 9.22882 2.14859 10.8919 2.14859C12.555 2.14859 14.0909 2.55664 15.4995 3.37274C16.9081 4.18884 18.0214 5.29192 18.8393 6.68199C19.6573 8.07205 20.0662 9.58318 20.0662 11.2154C20.0662 11.9149 19.9844 12.6054 19.8208 13.287C19.6573 13.9686 19.4255 14.6053 19.1256 15.1972C18.8257 15.7891 18.4667 16.3496 18.0487 16.8788C17.6306 17.4079 17.1581 17.8787 16.631 18.2912C16.1039 18.7038 15.5404 19.058 14.9406 19.354C14.3408 19.6499 13.6956 19.8786 13.0049 20.04C12.3142 20.2015 11.6144 20.2822 10.9056 20.2822Z" fill="#2F2F2F"/>
</svg>
